<svg xmlns:xlink="http://www.w3.org/1999/xlink" xmlns="http://www.w3.org/2000/svg" viewBox="0 0 312.5 312.5" preserveAspectRatio="xMidYMid meet" class="css-18yrpox" id="eccdcacc" width="312.5"  height="312.5" ><defs id="SvgjsDefs4354"></defs><g id="SvgjsG4355" featurekey="rootContainer" transform="matrix(1.5902660807115943,0,0,1.5902660807115943,0,0)" fill="#0F172A"><path xmlns="http://www.w3.org/2000/svg" d="M98.254 0C44.077 0 0 44.076 0 98.254s44.077 98.254 98.254 98.254c54.177 0 98.254-44.076 98.254-98.254S152.431 0 98.254 0zm0 195.508C44.628 195.508 1 151.88 1 98.254S44.628 1 98.254 1c53.626 0 97.254 43.628 97.254 97.254s-43.628 97.254-97.254 97.254z" fill="#0F172A"></path><path xmlns="http://www.w3.org/2000/svg" d="M98.254 5.453c-51.171 0-92.801 41.63-92.801 92.801s41.63 92.801 92.801 92.801 92.802-41.63 92.802-92.801S149.425 5.453 98.254 5.453z" fill="#0F172A"></path></g><g id="SvgjsG4356" featurekey="nameFeature-0" transform="matrix(3.7965071913705,0,0,3.7965071913705,49.92558885587034,57.4419209448168)" fill="#F8FAFC"><path d="M1.6 33.28 l0 -21.28 l5.04 0 l0 21.28 l-5.04 0 z M1.6 40 l0 -5.04 l5.04 0 l0 5.04 l-5.04 0 z M8.32 40 l0 -5.04 l6.16 0 l0 5.04 l-6.16 0 z M22.44 25.16 l-4.76 -13.16 l5.36 0 l3.52 9.68 l3.48 -9.68 l5.36 0 l-4.76 13.16 l-8.2 0 z M17.680000000000003 40 l4.76 -13.16 l8.2 0 l4.76 13.16 l-5.36 0 l-3.48 -9.68 l-3.52 9.68 l-5.36 0 z M43.92 40 l0 -21.28 l5.04 0 l0 21.28 l-5.04 0 z M38.6 17.04 l0 -5.04 l15.68 0 l0 5.04 l-15.68 0 z" fill="#F8FAFC"></path></g></svg>