<svg xmlns:xlink="http://www.w3.org/1999/xlink" xmlns="http://www.w3.org/2000/svg" viewBox="0 0 312.5 312.5" height="312.5" width="312.5" style="width: 312.5px; height: 312.5px; position: absolute; top: 50%; left: 50%; z-index: 0; cursor: pointer; overflow: visible; transform: translate(-50%, -50%) scale(0.46592);"><defs id="SvgjsDefs1416"></defs><g id="SvgjsG1417" featurekey="rootContainer" transform="matrix(2.9875715273930257,0,0,2.9875715273930257,0.00001862645013371933,0.00001862645013371933)" fill="#CBD5E1"><path xmlns="http://www.w3.org/2000/svg" d="M52.3 104.6a52.3 52.3 0 1 1 52.3-52.3 52.4 52.4 0 0 1-52.3 52.3zm0-102.3a50 50 0 1 0 50 50 50 50 0 0 0-50-50z" fill="#CBD5E1"></path></g><g id="SvgjsG1418" featurekey="nameFeature-0" transform="matrix(4.288688776400825,0,0,4.288688776400825,47.42262244719835,44.41993825390175)" fill="#CBD5E1"><path d="M3.5885 40.038594 l-1.5885 0 l0 -27.999 l1.5885 0 l0 27.999 z M6.6112 38.45 l10.167 -0.000039062 l0 1.5885 l-11.755 0 l0 -1.071 l-0.000078125 0 l0 -26.928 l1.5886 0 l0 26.411 z M26.187 26.032 l6.5268 14.003 l-1.753 0 l-0.010352 -0.022226 l-5.6396 -12.1 l-5.6492 12.123 l-1.753 0 l0.025625 -0.054844 l6.5012 -13.948 l-6.522 -13.993 l1.7529 0 l0.01043 0.022305 l5.6344 12.09 l5.6452 -12.112 l1.7529 0 l-0.025625 0.054844 z M26.187 33.0432 l3.2588 6.9924 l-1.7521 0 l-2.383 -5.1124 l-2.3825 5.1124 l-1.7529 0 l3.2589 -6.9924 l-0.00023438 -0.000625 l0.87648 -1.8794 z M33.856 12.027000000000001 l14.778 0 l0 1.5885 l-8.0665 0 l0 26.423 l-1.5885 0 l0 -26.423 l-5.1231 0 l0 -1.5885 z M42.002 15.05 l6.6323 0 l0 1.5885 l-5.0439 0 l0 23.4 l-1.5884 0 l0 -24.989 z" fill="#CBD5E1"></path></g></svg>